<svg height="36" viewBox="0 0 36 36" width="36" xmlns="http://www.w3.org/2000/svg"><g fill="none" fill-rule="evenodd" transform=""><circle cx="18" cy="18" fill="#3949ab" r="18"/><path d="m18.4508897 15.6264971-8.1313747-5.590235c-.13533-.09311385-.319515.0039152-.319515.1680134v1.597745c0 .0672395.0331941.130053.0885177.1680135l8.3683299 5.7529715c.0699631.048174.162396.0480038.2320186-.0005107l6.2663743-4.3627325c.13533-.0941352.3205363.0025534.3205363.1673326v10.7926943c0 .1126899-.0912414.2041014-.2039312.2041014h-1.7446504c-.1126899 0-.2039313-.0914115-.2041015-.2039312l-.0010213-6.8095667c0-.1627365-.1812912-.2599357-.3167914-.1697157l-4.2124225 2.8019265c-.0689417.0459612-.1588212.0456207-.2274225-.0010213l-8.0026835-5.4264772c-.1355003-.0917521-.3184936.005277-.3184936.1688645v11.2461775c0 .1126898.0914115.2039312.2039312.2039312h5.1341985c.1125196 0 .2039312-.0912414.2039312-.2039312v-3.2099593c0-.0680905-.033875-.131585-.0903902-.1693753l-1.3163608-.8827941c-.1355002-.0907306-.3174722.0062984-.3174722.1693753v2.3685301c0 .1126899-.0914116.2039313-.2039312.2039313h-1.6857521c-.1125196 0-.2039312-.0912414-.2039312-.2039313v-6.2694383c0-.1635876.1829934-.2606166.3184936-.1688646l2.1451931 1.4545846.0003404-.0005107 2.6037831 1.7460122-.0093625.0139586 1.5294842 1.0371894c.0686013.0464718.1584808.0468123.2274225.0008512l2.4975618-1.6614097c.1355002-.09022.3167913.0069793.3167913.1697157l.0006809 5.3161705c.0001702.1125197.0914116.203761.2041015.203761h5.1929265c.1128601 0 .2041015-.0912413.2041015-.2039312v-15.8184586c0-.1646089-.1852063-.2614677-.3205363-.1673325l-7.9965554 5.5674247c-.0696226.0485145-.1620556.0488549-.2320186.0008511" fill="#fdd835"/></g></svg>