<svg width="40" height="40" viewBox="0 0 40 40" xmlns="http://www.w3.org/2000/svg"><g fill="none" fill-rule="evenodd"><path d="M40 20c0 11.046-8.954 20-20 20S0 31.046 0 20 8.954 0 20 0s20 8.954 20 20" fill="#1A237E"/><path d="M13.329 9a2.329 2.329 0 1 1-.004 4.658A2.329 2.329 0 0 1 13.329 9zM11.32 28.342h4.016v-12.92H11.32v12.92zM18 15.321h3.852v1.766h.053c.537-1.016 1.846-2.087 3.8-2.087 4.066 0 4.817 2.676 4.817 6.154v7.087h-4.013v-6.283c0-1.498-.028-3.426-2.087-3.426-2.09 0-2.41 1.633-2.41 3.318v6.391H18v-12.92z" fill="#FFF"/></g></svg>