<svg height="40" viewBox="0 0 40 40" width="40" xmlns="http://www.w3.org/2000/svg"><g fill="none" fill-rule="evenodd" transform=""><path d="m39.99984 20.00004c0 11.0456-8.9544 20-20 20s-20-8.9544-20-20 8.9544-20 20-20 20 8.9544 20 20" fill="#1a237e"/><path d="m31.99984 13.301c-.7944.3524-1.6484.5908-2.5448.698.9148-.5488 1.6176-1.4172 1.9484-2.452-.8564.508-1.8048.8768-2.814 1.0752-.8088-.8612-1.9604-1.3992-3.2348-1.3992-2.4472 0-4.4316 1.984-4.4316 4.4312 0 .3476.0392.6856.1148 1.01-3.6828-.1848-6.9484-1.9488-9.134-4.63-.3812.6544-.6 1.4156-.6 2.2276 0 1.5376.7824 2.894 1.9712 3.6888-.7264-.0232-1.4096-.2224-2.0068-.5544-.0008.0188-.0008.0372-.0008.0556 0 2.1472 1.5276 3.9384 3.5552 4.3456-.372.1012-.7636.1552-1.1676.1552-.2856 0-.5636-.0276-.834-.0792.564 1.7604 2.2008 3.0416 4.1396 3.0776-1.5168 1.1884-3.4272 1.8968-5.5032 1.8968-.358 0-.7108-.0212-1.0576-.062 1.9612 1.2572 4.2908 1.9912 6.7932 1.9912 8.1512 0 12.6088-6.7528 12.6088-12.6088 0-.192-.0044-.3832-.0128-.5732.8656-.6248 1.6172-1.4052 2.2108-2.294" fill="#fff"/></g></svg>