<svg height="40" viewBox="0 0 40 40" width="40" xmlns="http://www.w3.org/2000/svg"><g fill="none" fill-rule="evenodd" transform=""><path d="m40 20c0 11.0456-8.9544 20-20 20s-20-8.9544-20-20 8.9544-20 20-20 20 8.9544 20 20" fill="#1a237e"/><path d="m23.7492 19.5596-.1776.0928-.5508.29-.0016-.0012-5.2268 2.7316v-6.2064l.004.002-.004-.0024 5.9568 3.0932-.0008.0004zm1.5764-7.5596h-10.5512c-5.7744 0-5.7744 1.6452-5.7744 5.6908v3.954c0 3.8476.818 5.6904 5.7744 5.6904h10.5512c4.4776 0 5.7748-1.0772 5.7748-5.6904v-3.954c0-4.2584-.2184-5.6908-5.7748-5.6908z" fill="#fff"/></g></svg>